<svg xmlns="http://www.w3.org/2000/svg" xmlns:xlink="http://www.w3.org/1999/xlink" width="500" zoomAndPan="magnify" viewBox="0 0 375 374.999991" height="500" preserveAspectRatio="xMidYMid meet" version="1.0"><defs><g/><clipPath id="b11bdaa81e"><rect x="0" width="194" y="0" height="327"/></clipPath><clipPath id="bc94a65f41"><path d="M 128.148438 66.269531 L 267.648438 66.269531 L 267.648438 209.519531 L 128.148438 209.519531 Z M 128.148438 66.269531 " clip-rule="nonzero"/></clipPath></defs><g transform="matrix(1, 0, 0, 1, 88, 48)"><g clip-path="url(#b11bdaa81e)"><g fill="#000000" fill-opacity="1"><g transform="translate(1.333955, 262.757153)"><g><path d="M 106.3125 -245.328125 C 119.351562 -245.328125 132.101562 -243.425781 144.5625 -239.625 C 157.03125 -235.832031 166.28125 -232.085938 172.3125 -228.390625 L 181.078125 -222.546875 L 158.875 -178.75 C 157.125 -179.914062 154.691406 -181.421875 151.578125 -183.265625 C 148.460938 -185.117188 142.617188 -187.601562 134.046875 -190.71875 C 125.484375 -193.832031 117.503906 -195.390625 110.109375 -195.390625 C 100.953125 -195.390625 93.890625 -193.441406 88.921875 -189.546875 C 83.960938 -185.648438 81.484375 -180.394531 81.484375 -173.78125 C 81.484375 -170.46875 82.648438 -167.398438 84.984375 -164.578125 C 87.328125 -161.753906 91.320312 -158.734375 96.96875 -155.515625 C 102.613281 -152.304688 107.578125 -149.726562 111.859375 -147.78125 C 116.140625 -145.832031 122.757812 -142.910156 131.71875 -139.015625 C 147.289062 -132.398438 160.578125 -123.394531 171.578125 -112 C 182.585938 -100.613281 188.09375 -87.71875 188.09375 -73.3125 C 188.09375 -59.488281 185.609375 -47.414062 180.640625 -37.09375 C 175.671875 -26.769531 168.851562 -18.6875 160.1875 -12.84375 C 151.53125 -7.007812 141.941406 -2.679688 131.421875 0.140625 C 120.910156 2.960938 109.519531 4.375 97.25 4.375 C 86.738281 4.375 76.421875 3.300781 66.296875 1.15625 C 56.171875 -0.976562 47.703125 -3.648438 40.890625 -6.859375 C 34.078125 -10.078125 27.941406 -13.242188 22.484375 -16.359375 C 17.035156 -19.472656 13.046875 -22.097656 10.515625 -24.234375 L 6.71875 -27.453125 L 34.171875 -73.59375 C 36.503906 -71.644531 39.710938 -69.160156 43.796875 -66.140625 C 47.890625 -63.128906 55.144531 -59.09375 65.5625 -54.03125 C 75.976562 -48.96875 85.179688 -46.4375 93.171875 -46.4375 C 116.335938 -46.4375 127.921875 -54.320312 127.921875 -70.09375 C 127.921875 -73.40625 127.09375 -76.472656 125.4375 -79.296875 C 123.78125 -82.117188 120.859375 -84.941406 116.671875 -87.765625 C 112.492188 -90.585938 108.796875 -92.828125 105.578125 -94.484375 C 102.367188 -96.140625 97.113281 -98.671875 89.8125 -102.078125 C 82.507812 -105.484375 77.101562 -108.0625 73.59375 -109.8125 C 58.988281 -117.019531 47.695312 -126.023438 39.71875 -136.828125 C 31.738281 -147.640625 27.75 -159.273438 27.75 -171.734375 C 27.75 -193.347656 35.726562 -211.015625 51.6875 -224.734375 C 67.65625 -238.460938 85.863281 -245.328125 106.3125 -245.328125 Z M 106.3125 -245.328125 "/></g></g></g></g></g><g clip-path="url(#bc94a65f41)"><path fill="#e4e1da" d="M 267.503906 136.71875 L 246.953125 136.71875 C 211.769531 129.105469 203.945312 121.257812 196.335938 86.023438 L 196.335938 66.273438 L 193.734375 66.273438 L 193.734375 86.230469 C 186.136719 121.289062 178.273438 129.121094 143.160156 136.71875 L 128.167969 136.71875 L 128.167969 139.320312 L 143.160156 139.320312 C 178.273438 146.917969 186.136719 154.753906 193.734375 189.8125 L 193.734375 209.402344 L 196.335938 209.402344 L 196.335938 190.019531 C 203.945312 154.785156 211.769531 146.933594 246.953125 139.320312 L 267.503906 139.320312 Z M 267.503906 136.71875 " fill-opacity="1" fill-rule="nonzero"/></g></svg>